<svg width="32" height="32" viewBox="0 0 32 32" fill="none" xmlns="http://www.w3.org/2000/svg">
<circle cx="16" cy="16" r="13" fill="white" stroke="#2E2C6A" stroke-width="2"/>
<path d="M16 21.0872L16.07 17.4387C12.745 14.3853 19.85 13.4643 19.85 11.4169C19.85 10 14.25 13.5422 15.65 13.5422C16.728 13.5422 14.978 12.1253 15.349 13.0888H16.651C17.022 12.1253 18.072 11.4169 19.15 11.4169C20.55 11.4169 13.2 15.6676 13.2 17.0845C13.2 19.1319 16.0632 17.7929 16 21.0872ZM19.15 10C17.932 10 16.763 10.5738 16 11.4736C15.237 10.5738 14.068 10 12.85 10C10.694 10 9 11.7074 9 13.8965C9 16.5673 11.38 18.7564 14.985 22.0649L16 23L17.015 22.0649C20.62 18.7564 23 16.5673 23 13.8965C23 11.7074 21.306 10 19.15 10Z" fill="#2E2C6A"/>
</svg>
