<svg width="32" height="32" viewBox="0 0 32 32" fill="none" xmlns="http://www.w3.org/2000/svg">
<circle cx="16" cy="16" r="13" fill="white" stroke="#2E2C6A" stroke-width="2"/>
<path d="M15.7973 21.0163L15.7273 21.0872L15.6503 21.0163C12.3253 17.9629 10.1273 15.9439 10.1273 13.8965C10.1273 12.4796 11.1773 11.4169 12.5773 11.4169C13.6553 11.4169 14.7053 12.1253 15.0763 13.0888H16.3783C16.7493 12.1253 17.7993 11.4169 18.8773 11.4169C20.2773 11.4169 21.3273 12.4796 21.3273 13.8965C21.3273 15.9439 19.1293 17.9629 15.7973 21.0163ZM18.8773 10C17.6593 10 16.4903 10.5738 15.7273 11.4736C14.9643 10.5738 13.7953 10 12.5773 10C10.4213 10 8.72729 11.7074 8.72729 13.8965C8.72729 16.5673 11.1073 18.7564 14.7123 22.0649L15.7273 23L16.7423 22.0649C20.3473 18.7564 22.7273 16.5673 22.7273 13.8965C22.7273 11.7074 21.0333 10 18.8773 10Z" fill="#2E2C6A"/>
</svg>
