<svg width="100" height="100" viewBox="0 0 100 100" fill="none" xmlns="http://www.w3.org/2000/svg">
<rect width="100" height="100" rx="30" fill="#2E2C6A"/>
<path d="M46.0319 37.2551C46.2536 41.9666 44.7927 47.7961 42.6567 53.2762C39.8054 60.2736 35.3421 69.0278 28.491 71.5632C25.3576 72.6313 22.5064 71.693 20.5417 69.2674C12.8241 59.6148 24.3602 35.1988 32.7931 30.0481C39.2312 25.6261 45.7498 29.02 46.0218 37.0555V37.2551H46.0319Z" fill="white" stroke="white"/>
<path d="M43.0396 62.26C42.8784 53.4359 47.6742 41.5074 53.276 34.2605C60.8827 23.9191 72.0662 26.8339 71.0788 39.7306C69.9907 50.4713 65.1748 62.4297 57.3463 69.3372C50.8176 74.7375 43.1202 70.9543 43.0396 62.4596V62.26Z" fill="white" stroke="white"/>
<path d="M58.9279 62.29C59.0488 53.4759 54.253 41.5674 48.6915 34.2905C40.6112 23.3802 29.2665 27.4229 30.9793 40.8886C32.4402 51.1201 36.7826 62.3 44.4498 69.2674C50.9685 74.8174 58.8574 71.0841 58.9279 62.4996V62.3V62.29Z" fill="white" stroke="white"/>
<path d="M82.9977 62.29C83.1186 53.4759 78.3228 41.5674 72.7613 34.2905C64.6911 23.3802 53.3465 27.4229 55.0492 40.8886C56.5101 51.1201 60.8525 62.3 68.5197 69.2674C75.0383 74.8174 82.9272 71.0841 82.9977 62.4996V62.3V62.29Z" fill="white" stroke="white"/>
</svg>
