<svg width="154" height="119" viewBox="0 0 154 119" fill="none" xmlns="http://www.w3.org/2000/svg">
<g filter="url(#filter0_ii_176_1409)">
<path d="M68.0638 19.0113C68.5071 28.4343 65.5853 40.0933 61.3134 51.0535C55.6109 65.0483 46.6843 82.5567 32.982 87.6275C26.7153 89.7637 21.0127 87.8871 17.0834 83.0358C1.64821 63.7306 24.7204 14.8987 41.5862 4.59731C54.4623 -4.24674 67.4996 2.54101 68.0437 18.612V19.0113H68.0638Z" fill="#2E2C6A" stroke="#2E2C6A"/>
<path d="M62.0792 69.0212C61.7568 51.373 71.3484 27.5161 82.552 13.0222C97.7655 -7.66048 120.132 -1.831 118.158 23.9625C115.981 45.4437 106.35 69.3606 90.6927 83.1757C77.6353 93.9762 62.2404 86.4098 62.0792 69.4205V69.0212Z" fill="#2E2C6A" stroke="#2E2C6A"/>
<path d="M93.8558 69.0812C94.0976 51.453 84.506 27.636 73.383 13.0823C57.2224 -8.73838 34.5331 -0.652969 37.9586 26.2785C40.8805 46.7415 49.5653 69.1012 64.8997 83.0361C77.937 94.1361 93.7147 86.6695 93.8558 69.5005V69.1012V69.0812Z" fill="#2E2C6A" stroke="#2E2C6A"/>
<path d="M141.995 69.0812C142.237 51.453 132.646 27.636 121.523 13.0823C105.382 -8.73838 82.6929 -0.652969 86.0984 26.2785C89.0202 46.7415 97.705 69.1012 113.039 83.0361C126.077 94.1361 141.854 86.6695 141.995 69.5005V69.1012V69.0812Z" fill="#2E2C6A" stroke="#2E2C6A"/>
</g>
<g filter="url(#filter1_f_176_1409)">
<ellipse cx="77" cy="101.501" rx="65" ry="5" fill="url(#paint0_linear_176_1409)"/>
</g>
<defs>
<filter id="filter0_ii_176_1409" x="9.5" y="-1" width="133" height="91.0012" filterUnits="userSpaceOnUse" color-interpolation-filters="sRGB">
<feFlood flood-opacity="0" result="BackgroundImageFix"/>
<feBlend mode="normal" in="SourceGraphic" in2="BackgroundImageFix" result="shape"/>
<feColorMatrix in="SourceAlpha" type="matrix" values="0 0 0 0 0 0 0 0 0 0 0 0 0 0 0 0 0 0 127 0" result="hardAlpha"/>
<feOffset dx="-2" dy="1"/>
<feGaussianBlur stdDeviation="8"/>
<feComposite in2="hardAlpha" operator="arithmetic" k2="-1" k3="1"/>
<feColorMatrix type="matrix" values="0 0 0 0 0 0 0 0 0 0 0 0 0 0 0 0 0 0 0.44 0"/>
<feBlend mode="normal" in2="shape" result="effect1_innerShadow_176_1409"/>
<feColorMatrix in="SourceAlpha" type="matrix" values="0 0 0 0 0 0 0 0 0 0 0 0 0 0 0 0 0 0 127 0" result="hardAlpha"/>
<feOffset dx="-1" dy="-1"/>
<feGaussianBlur stdDeviation="1"/>
<feComposite in2="hardAlpha" operator="arithmetic" k2="-1" k3="1"/>
<feColorMatrix type="matrix" values="0 0 0 0 1 0 0 0 0 1 0 0 0 0 1 0 0 0 0.12 0"/>
<feBlend mode="normal" in2="effect1_innerShadow_176_1409" result="effect2_innerShadow_176_1409"/>
</filter>
<filter id="filter1_f_176_1409" x="0" y="84.5012" width="154" height="34" filterUnits="userSpaceOnUse" color-interpolation-filters="sRGB">
<feFlood flood-opacity="0" result="BackgroundImageFix"/>
<feBlend mode="normal" in="SourceGraphic" in2="BackgroundImageFix" result="shape"/>
<feGaussianBlur stdDeviation="6" result="effect1_foregroundBlur_176_1409"/>
</filter>
<linearGradient id="paint0_linear_176_1409" x1="77" y1="106.501" x2="77" y2="96.5012" gradientUnits="userSpaceOnUse">
<stop stop-color="#D7DBDE"/>
<stop offset="1" stop-color="#F0F2F4"/>
</linearGradient>
</defs>
</svg>
