<svg width="161" height="34" viewBox="0 0 161 34" fill="none" xmlns="http://www.w3.org/2000/svg">
<path d="M18.9756 7.56367C19.1217 10.669 18.1588 14.5111 16.751 18.123C14.8718 22.7349 11.93 28.5048 7.41453 30.1758C5.34935 30.8798 3.4701 30.2614 2.17521 28.6627C-2.91138 22.3007 4.69194 6.20839 10.25 2.8136C14.4933 -0.100913 18.7896 2.13596 18.9689 7.43209V7.56367H18.9756Z" fill="#2E2C6A" stroke="#2E2C6A"/>
<path d="M17.0034 24.0438C16.8971 18.228 20.058 10.366 23.7501 5.58961C28.7636 -1.22627 36.1345 0.694806 35.4838 9.19493C34.7666 16.274 31.5925 24.1557 26.4328 28.7084C22.1298 32.2676 17.0565 29.7742 17.0034 24.1754V24.0438Z" fill="#2E2C6A" stroke="#2E2C6A"/>
<path d="M27.4752 24.0636C27.5549 18.2543 24.394 10.4055 20.7285 5.60939C15.4028 -1.5815 7.92567 1.08301 9.05454 9.95814C10.0174 16.7017 12.8794 24.0702 17.9328 28.6624C22.2292 32.3203 27.4287 29.8597 27.4752 24.2018V24.0702V24.0636Z" fill="#2E2C6A" stroke="#2E2C6A"/>
<path d="M43.3394 24.0636C43.4191 18.2543 40.2582 10.4055 36.5927 5.60939C31.2737 -1.5815 23.7965 1.08301 24.9188 9.95814C25.8817 16.7017 28.7437 24.0702 33.7971 28.6624C38.0935 32.3203 43.2929 29.8597 43.3394 24.2018V24.0702V24.0636Z" fill="#2E2C6A" stroke="#2E2C6A"/>
<path d="M84.5595 2.70672C85.4468 2.30094 86.3205 2.33334 87.1873 2.7169C88.0716 3.10825 88.959 3.87166 89.8084 4.94068C91.5067 7.07831 92.957 10.3159 93.8807 13.7286C94.8044 17.1414 95.1839 20.665 94.7923 23.3604C94.5965 24.7082 94.2131 25.8113 93.6441 26.5906C93.0863 27.3545 92.3447 27.8181 91.3693 27.9093L91.2853 27.9165L91.2089 27.952C90.3199 28.3571 89.4446 28.3239 88.5765 27.94C87.6909 27.5482 86.8022 26.7842 85.9521 25.715C84.2525 23.5773 82.8016 20.3405 81.8781 16.9285C80.9546 13.5165 80.5762 9.99393 80.9692 7.29911C81.1658 5.95153 81.5495 4.84876 82.1195 4.06932C82.6783 3.30527 83.4212 2.84125 84.3981 2.7496L84.4831 2.74218L84.5595 2.70672Z" fill="#2E2C6A" stroke="#2E2C6A"/>
<path d="M110.894 2.7682C111.867 2.85667 112.607 3.31789 113.164 4.07976C113.733 4.85708 114.117 5.95816 114.313 7.30503C114.706 9.99822 114.329 13.521 113.408 16.9345C112.487 20.348 111.039 23.5876 109.34 25.7277C108.491 26.7979 107.603 27.5631 106.717 27.956C105.849 28.341 104.973 28.3748 104.082 27.9703L104.006 27.9349L103.922 27.9277C102.947 27.8378 102.206 27.3752 101.648 26.6123C101.079 25.8339 100.694 24.7317 100.497 23.3844C100.103 20.6905 100.479 17.168 101.4 13.7554C102.321 10.3426 103.769 7.1044 105.469 4.96545C106.318 3.89586 107.207 3.13107 108.094 2.73865C108.963 2.35397 109.84 2.32041 110.732 2.72532L110.81 2.76103L110.894 2.7682Z" fill="#2E2C6A" stroke="#2E2C6A"/>
<path d="M94.4404 20.6294C96.5736 20.1901 98.868 20.0996 100.65 20.4907C101.537 20.635 102.651 20.9341 103.73 21.3501C104.818 21.7692 105.926 22.3279 106.736 23.0044C107.52 23.6589 108.22 24.5996 107.97 25.7446C107.733 26.828 106.707 27.7271 105.087 28.5103C101.578 30.299 97.1988 30.6225 93.4932 29.6304L93.4863 29.6284C92.7174 29.4149 90.7369 28.7826 89.3301 27.8003C88.6401 27.3185 87.9462 26.6563 87.7334 25.7935C87.4988 24.8416 87.9027 23.9234 88.8066 23.1079L88.8779 23.0435L89.0928 22.8481H89.1191C90.4476 21.7908 92.4318 21.043 94.4404 20.6294Z" fill="#2E2C6A" stroke="#2E2C6A" stroke-width="1.5"/>
<rect x="149.5" y="1.46338" width="11" height="11" rx="5.5" fill="#2E2C6A"/>
<path d="M155.003 13.4984C162.323 12.5453 162.341 31.3694 155.003 30.4288C147.674 31.3756 147.657 12.5578 155.003 13.4984Z" fill="#2E2C6A"/>
<path d="M144.732 3.46331C153.435 6.52747 136.686 35.5808 129.651 29.584C120.944 26.5046 137.687 -2.53906 144.732 3.46331Z" fill="#2E2C6A"/>
<path d="M118.436 3.45921C125.441 -2.54594 142.228 26.4853 133.517 29.5799C126.497 35.5809 109.715 6.55929 118.436 3.45921Z" fill="#2E2C6A"/>
<path d="M47.5595 2.70672C48.4468 2.30094 49.3205 2.33334 50.1873 2.7169C51.0716 3.10825 51.959 3.87166 52.8084 4.94068C54.5067 7.07831 55.957 10.3159 56.8807 13.7286C57.8044 17.1414 58.1839 20.665 57.7923 23.3604C57.5965 24.7082 57.2131 25.8113 56.6441 26.5906C56.0863 27.3545 55.3447 27.8181 54.3693 27.9093L54.2853 27.9165L54.2089 27.952C53.3199 28.3571 52.4446 28.3239 51.5765 27.94C50.6909 27.5482 49.8022 26.7842 48.9521 25.715C47.2525 23.5773 45.8016 20.3405 44.8781 16.9285C43.9546 13.5165 43.5762 9.99393 43.9692 7.29911C44.1658 5.95153 44.5495 4.84876 45.1195 4.06932C45.6783 3.30527 46.4212 2.84125 47.3981 2.7496L47.4831 2.74218L47.5595 2.70672Z" fill="#2E2C6A" stroke="#2E2C6A"/>
<path d="M73.8938 2.7682C74.8669 2.85667 75.6072 3.31789 76.1645 4.07976C76.7329 4.85708 77.1165 5.95816 77.313 7.30503C77.7058 9.99822 77.3292 13.521 76.4081 16.9345C75.487 20.348 74.0387 23.5876 72.3404 25.7277C71.4911 26.7979 70.6029 27.5631 69.7171 27.956C68.8488 28.341 67.9727 28.3748 67.0821 27.9703L67.0057 27.9349L66.9216 27.9277C65.9474 27.8378 65.2061 27.3752 64.648 26.6123C64.0786 25.8339 63.6942 24.7317 63.4971 23.3844C63.1032 20.6905 63.479 17.168 64.3999 13.7554C65.3208 10.3426 66.7694 7.1044 68.4687 4.96545C69.3185 3.89586 70.2069 3.13107 71.0937 2.73865C71.9629 2.35397 72.8402 2.32041 73.7324 2.72532L73.8098 2.76103L73.8938 2.7682Z" fill="#2E2C6A" stroke="#2E2C6A"/>
<path d="M57.4404 20.6294C59.5736 20.1901 61.868 20.0996 63.6504 20.4907C64.5366 20.635 65.6512 20.9341 66.7305 21.3501C67.8177 21.7692 68.9261 22.3279 69.7363 23.0044C70.5202 23.6589 71.2202 24.5996 70.9697 25.7446C70.7327 26.828 69.7069 27.7271 68.0869 28.5103C64.5784 30.299 60.1988 30.6225 56.4932 29.6304L56.4863 29.6284C55.7174 29.4149 53.7369 28.7826 52.3301 27.8003C51.6401 27.3185 50.9462 26.6563 50.7334 25.7935C50.4988 24.8416 50.9027 23.9234 51.8066 23.1079L51.8779 23.0435L52.0928 22.8481H52.1191C53.4476 21.7908 55.4318 21.043 57.4404 20.6294Z" fill="#2E2C6A" stroke="#2E2C6A" stroke-width="1.5"/>
</svg>

