<svg width="32" height="32" viewBox="0 0 32 32" fill="none" xmlns="http://www.w3.org/2000/svg">
<mask id="path-1-inside-1_450_1004" fill="white">
<path d="M25.9974 6.20001C24.6954 4.8684 23.1402 3.81079 21.4232 3.08947C19.7063 2.36816 17.8623 1.99774 16 2.00001C8.26781 2.00001 2.00001 8.26781 2.00001 16C1.99566 19.6655 3.43338 23.1856 6.00261 25.8M25.996 6.20001C28.5657 8.81416 30.004 12.3343 30 16C30 23.7322 23.7322 30 16 30C14.1377 30.0023 12.2937 29.6318 10.5768 28.9105C8.85981 28.1892 7.30455 27.1316 6.00261 25.8"/>
</mask>
<path d="M23.8523 8.2973C25.0106 9.48199 26.91 9.50339 28.0947 8.34509C29.2794 7.18679 29.3008 5.28741 28.1425 4.10272L25.9974 6.20001L23.8523 8.2973ZM16 2.00001V5.00001L16.0037 5.00001L16 2.00001ZM2.00001 16L5.00001 16.0036V16H2.00001ZM6.00261 25.8L8.1477 23.7027L8.14232 23.6972L6.00261 25.8ZM28.1354 4.09694C26.9739 2.91537 25.0745 2.8991 23.8929 4.06059C22.7114 5.22208 22.6951 7.12151 23.8566 8.30308L25.996 6.20001L28.1354 4.09694ZM30 16L27 15.9967V16H30ZM16 30V27L15.9963 27L16 30ZM25.9974 6.20001L28.1425 4.10272C26.5607 2.4849 24.6712 1.19998 22.5852 0.323636L21.4232 3.08947L20.2613 5.85531C21.6092 6.42159 22.8302 7.25189 23.8523 8.2973L25.9974 6.20001ZM21.4232 3.08947L22.5852 0.323636C20.4992 -0.552707 18.2589 -1.00275 15.9963 -0.999987L16 2.00001L16.0037 5.00001C17.4657 4.99822 18.9133 5.28903 20.2613 5.85531L21.4232 3.08947ZM16 2.00001V-0.99999C6.61095 -0.99999 -0.99999 6.61095 -0.99999 16H2.00001H5.00001C5.00001 9.92466 9.92466 5.00001 16 5.00001V2.00001ZM2.00001 16L-0.999988 15.9964C-1.00527 20.4498 0.741454 24.7265 3.86289 27.9028L6.00261 25.8L8.14232 23.6972C6.1253 21.6448 4.9966 18.8812 5.00001 16.0036L2.00001 16ZM25.996 6.20001L23.8566 8.30308C25.874 10.3554 27.0031 13.1189 27 15.9967L30 16L33 16.0033C33.0048 11.5497 31.2575 7.27296 28.1354 4.09694L25.996 6.20001ZM30 16H27C27 22.0753 22.0753 27 16 27V30V33C25.389 33 33 25.389 33 16H30ZM16 30L15.9963 27C14.5343 27.0018 13.0867 26.711 11.7387 26.1447L10.5768 28.9105L9.41481 31.6764C11.5008 32.5527 13.7411 33.0028 16.0037 33L16 30ZM10.5768 28.9105L11.7387 26.1447C10.3908 25.5784 9.16981 24.7481 8.14769 23.7027L6.00261 25.8L3.85753 27.8973C5.4393 29.5151 7.32882 30.8 9.41481 31.6764L10.5768 28.9105Z" fill="#7A8DD6" mask="url(#path-1-inside-1_450_1004)"/>
<path d="M6.5 25.5L25 7" stroke="#7A8DD6" stroke-width="3"/>
</svg>
