<svg width="28" height="28" viewBox="0 0 28 28" fill="none" xmlns="http://www.w3.org/2000/svg">
<path d="M14 0C6.28048 0 0 6.28048 0 14C0 21.7195 6.28048 28 14 28C21.7195 28 28 21.7195 28 14C28 6.28048 21.7195 0 14 0ZM22.0769 12.2601C22.0769 12.414 22.0158 12.5615 21.907 12.6704C21.7982 12.7792 21.6506 12.8403 21.4967 12.8403H17.4892C17.3744 12.8405 17.2622 12.8066 17.1667 12.7428C17.0712 12.6791 16.9968 12.5885 16.9529 12.4824C16.909 12.3764 16.8975 12.2597 16.92 12.1471C16.9426 12.0345 16.998 11.9312 17.0793 11.8502L18.5715 10.358L18.1946 9.91981C17.5204 9.21988 16.6833 8.69794 15.758 8.40063C14.8328 8.10333 13.8483 8.03993 12.8926 8.2161C11.9369 8.39228 11.0397 8.80254 10.2813 9.41021C9.52286 10.0179 8.92685 10.804 8.54653 11.6983C8.1662 12.5926 8.01341 13.5673 8.10183 14.5351C8.19024 15.5029 8.5171 16.4337 9.05318 17.2443C9.58926 18.0549 10.3178 18.72 11.1738 19.1802C12.0298 19.6404 12.9864 19.8813 13.9583 19.8813C15.1745 19.8802 16.3606 19.5028 17.3538 18.8008C18.347 18.0989 19.0987 17.1068 19.5058 15.9607C19.5529 15.8272 19.6259 15.7043 19.7206 15.5991C19.8152 15.4938 19.9296 15.4082 20.0574 15.3472C20.1851 15.2861 20.3236 15.2509 20.4649 15.2434C20.6063 15.2359 20.7477 15.2563 20.8812 15.3034C21.0147 15.3506 21.1375 15.4236 21.2428 15.5182C21.3481 15.6128 21.4337 15.7273 21.4947 15.855C21.5557 15.9827 21.591 16.1212 21.5985 16.2626C21.606 16.4039 21.5856 16.5454 21.5385 16.6788C21.0476 18.068 20.1843 19.2954 19.043 20.2271C17.9017 21.1587 16.5262 21.7587 15.0669 21.9614C13.6076 22.1642 12.1207 21.9619 10.7686 21.3766C9.41657 20.7913 8.2514 19.8457 7.40048 18.643C6.54955 17.4403 6.04562 16.0268 5.94376 14.557C5.84189 13.0872 6.14602 11.6177 6.8229 10.3091C7.49977 9.00052 8.52335 7.90316 9.78176 7.13699C11.0402 6.37082 12.485 5.96532 13.9583 5.96481C15.0456 5.96065 16.1223 6.17917 17.1219 6.60689C18.1216 7.03461 19.0231 7.66249 19.771 8.45183L19.8087 8.49356L20.0987 8.8301L21.0868 7.84202C21.1395 7.78818 21.2023 7.74535 21.2716 7.716C21.3409 7.68665 21.4154 7.67137 21.4907 7.67106C21.5673 7.67043 21.6433 7.68501 21.7142 7.71394C21.7852 7.74287 21.8497 7.78558 21.904 7.83959C21.9583 7.89361 22.0014 7.95787 22.0307 8.02864C22.0601 8.09942 22.0751 8.17531 22.0749 8.25192L22.0769 12.2601Z" fill="#2E2C6A"/>
</svg>
